# xmcd
#
# Track frame offsets:
#	150
#	25629
#	36138
#	48942
#	60474
#	77370
#	88155
#	99334
#	111788
#	125976
#	134133
#	140227
#	158240
#	176298
#
# Disc length: 2582 seconds
#
# Revision: 0
# Processed by: cddbd v1.5.2PL0 Copyright (c) Steve Scherf et al.
# Submitted via: EasyCDDAExtractor 2010.6.0.0
#
DISCID=ba0a140e
DTITLE=RENZO ARBORE - QUELLI DELLA NOTTE
DYEAR=1900
DGENRE=
TTITLE0=Ma la notte no
TTITLE1=L'esercito del Surf
TTITLE2=It's now or never
TTITLE3=La società dei magnaccioni
TTITLE4=Tanto pe' canta'
TTITLE5=Let's Twist again
TTITLE6=Tango della gelosia
TTITLE7=Una ragazza in due
TTITLE8=Figlio unico
TTITLE9=A hard day's night
TTITLE10=When I'm sixty-four
TTITLE11=Eso es el amor
TTITLE12=Quando vien la sera
TTITLE13=Il materasso
EXTD=
EXTT0=
EXTT1=
EXTT2=
EXTT3=
EXTT4=
EXTT5=
EXTT6=
EXTT7=
EXTT8=
EXTT9=
EXTT10=
EXTT11=
EXTT12=
EXTT13=
PLAYORDER=
